#!OML:ASF F:\VICON\USERDATA\INSTALL\rory3\rory3.ASF
:FULLY-SPECIFIED
:DEGREES
126
root -8.48727 17.118 -3.48873 -4.30032 28.6787 -11.0582
lowerback 8.49585 -0.328663 5.64426
upperback 0.453953 0.352813 4.57963
thorax -4.30133 0.125023 1.55621
lowerneck -14.0498 -3.08167 -8.76621
upperneck 21.1835 -3.09523 4.18656
head 9.18798 -1.67642 2.53103
rclavicle 7.196e-014 4.57205e-014
rhumerus -35.7083 -11.0034 -76.419
rradius 32.9848
rwrist 1.27024
rhand -14.7972 11.0061
rfingers 7.12502
rthumb 11.3604 -18.6662
lclavicle 7.196e-014 4.57205e-014
lhumerus -41.8883 20.1076 78.3086
lradius 27.3999
lwrist -3.49546
lhand -23.1451 18.6395
lfingers 7.12502
lthumb 3.30299 48.5936
rfemur 3.02503 5.72906 30.2745
rtibia 20.8649
rfoot -17.5441 -10.9303
rtoes -8.94309
lfemur -41.124 8.05119 -21.1556
ltibia 46.843
lfoot -9.21447 -2.527
ltoes 2.62037
127
root -8.4016 17.106 -3.28019 -4.07622 28.642 -11.1449
lowerback 8.29863 -0.217818 5.59967
upperback 0.523702 0.480112 4.71003
thorax -4.11741 0.194405 1.70027
lowerneck -14.7566 -3.15774 -9.09472
upperneck 21.3205 -3.0731 4.25444
head 9.37372 -1.68053 2.60832
rclavicle 2.20651e-014 2.62396e-014
rhumerus -35.1905 -10.2468 -76.5253
rradius 33.9465
rwrist 0.435924
rhand -14.7385 10.9334
rfingers 7.12502
rthumb 11.417 -18.7357
lclavicle 2.20651e-014 2.62396e-014
lhumerus -42.1257 21.8347 77.4734
lradius 26.8082
lwrist -4.44416
lhand -23.3986 19.4237
lfingers 7.12502
lthumb 3.05817 49.3816
rfemur 4.19463 5.59691 30.4924
rtibia 19.6365
rfoot -17.3802 -10.7997
rtoes -8.83898
lfemur -41.1672 7.40261 -20.8004
ltibia 43.4724
lfoot -8.76054 -1.74566
ltoes 3.61742
128
root -8.30959 17.0736 -3.078 -3.9795 28.5551 -11.4694
lowerback 8.12095 -0.0727867 5.9405
upperback 0.585162 0.688725 4.79306
thorax -3.94877 0.296694 1.57173
lowerneck -15.0341 -3.22448 -9.27913
upperneck 21.1086 -3.13394 4.43354
head 9.362 -1.69919 2.6892
rclavicle -5.93372e-014 7.95139e-016
rhumerus -34.6789 -9.65008 -76.652
rradius 34.7666
rwrist -0.376025
rhand -14.9089 10.8984
rfingers 7.12502
rthumb 11.2526 -18.7798
lclavicle -5.93372e-014 7.95139e-016
lhumerus -42.5137 22.6146 76.806
lradius 26.4558
lwrist -5.09475
lhand -23.391 19.8797
lfingers 7.12502
lthumb 3.06545 49.8375
rfemur 5.35891 5.31779 30.8681
rtibia 18.4241
rfoot -17.3261 -10.4392
rtoes -8.79348
lfemur -41.2195 6.76237 -20.2423
ltibia 39.9973
lfoot -8.0425 -0.635352
ltoes 1.13612
129
root -8.22024 17.04 -2.86961 -3.9935 28.3394 -11.9265
lowerback 8.07317 0.13634 6.32871
upperback 0.49731 1.00756 4.84082
thorax -4.00395 0.446635 1.37008
lowerneck -14.8296 -3.21707 -9.08556
upperneck 20.8589 -3.18339 4.41267
head 9.23616 -1.70786 2.64206
rclavicle 2.28602e-015 5.24792e-014
rhumerus -34.5028 -9.4621 -76.7079
rradius 35.4297
rwrist -0.685992
rhand -15.6692 11.7126
rfingers 7.12502
rthumb 10.5193 -18.0042
lclavicle 2.28602e-015 5.24792e-014
lhumerus -43.3023 23.7501 75.3785
lradius 25.803
lwrist -6.95388
lhand -22.0576 17.3703
lfingers 7.12502
lthumb 4.35316 47.3055
rfemur 6.62002 5.29779 31.4566
rtibia 17.2377
rfoot -17.1737 -10.4597
rtoes -10.6304
lfemur -41.0441 5.64408 -19.0834
ltibia 36.4672
lfoot -7.00458 0.679184
ltoes 0.0554703
130
root -8.12696 17.0264 -2.65667 -3.65766 28.0316 -11.9742
lowerback 7.88526 0.35841 6.31896
upperback 0.366496 1.29162 4.825
thorax -4.02889 0.584872 1.32846
lowerneck -14.8175 -3.21889 -9.00325
upperneck 20.7386 -3.20108 4.39182
head 9.19136 -1.71056 2.61764
rclavicle -3.00662e-014 -2.82274e-014
rhumerus -33.995 -9.22604 -76.7467
rradius 35.7517
rwrist -0.997206
rhand -15.8223 12.1369
rfingers 7.12502
rthumb 10.3716 -17.5874
lclavicle -3.00662e-014 -2.82274e-014
lhumerus -44.0012 24.7483 74.181
lradius 25.268
lwrist -8.06222
lhand -20.9014 14.9071
lfingers 7.12502
lthumb 5.46955 44.8165
rfemur 7.81141 5.47057 31.646
rtibia 15.9878
rfoot -16.9945 -10.571
rtoes -12.2883
lfemur -40.8024 4.04129 -17.8335
ltibia 33.02
lfoot -6.08466 2.1298
ltoes 3.87922
131
root -8.02302 17.0191 -2.45117 -3.14437 27.6769 -11.6253
lowerback 7.66642 0.617141 6.09805
upperback 0.311538 1.5897 4.68135
thorax -3.95754 0.734894 1.27043
lowerneck -15.101 -3.24609 -9.03236
upperneck 20.8221 -3.21917 4.44741
head 9.27552 -1.7134 2.63837
rclavicle -2.21645e-014 2.26615e-014
rhumerus -33.2858 -8.96125 -76.7999
rradius 35.9521
rwrist -1.37678
rhand -16.3947 12.709
rfingers 7.12502
rthumb 9.81942 -17.042
lclavicle -2.21645e-014 2.26615e-014
lhumerus -44.4569 25.9609 73.0302
lradius 24.6134
lwrist -9.05351
lhand -20.5203 14.5165
lfingers 7.12502
lthumb 5.83752 44.4161
rfemur 9.04246 5.5835 31.3335
rtibia 14.6184
rfoot -16.8155 -10.3843
rtoes -13.4896
lfemur -40.4455 1.97234 -16.6433
ltibia 29.773
lfoot -5.91536 4.53278
ltoes 7.69361
132
root -7.91694 17.0009 -2.2415 -2.72459 27.2236 -11.4582
lowerback 7.49243 0.904116 6.09159
upperback 0.136267 1.95749 4.51629
thorax -4.02896 0.910918 1.06462
lowerneck -15.0091 -3.19247 -9.01077
upperneck 20.7937 -3.1917 4.59341
head 9.2476 -1.68343 2.68966
rclavicle -4.13721e-014 7.63333e-014
rhumerus -33.0862 -8.80344 -76.8886
rradius 36.3576
rwrist -1.31768
rhand -17.6734 13.5852
rfingers 7.12502
rthumb 8.5855 -16.2203
lclavicle -4.13721e-014 7.63333e-014
lhumerus -45.1521 26.806 71.778
lradius 23.9909
lwrist -9.9984
lhand -20.6629 15.8168
lfingers 7.12502
lthumb 5.69982 45.7201
rfemur 10.3235 5.48465 31.1373
rtibia 13.2075
rfoot -16.5524 -9.93387
rtoes -14.6526
lfemur -40.1807 -0.385954 -14.993
ltibia 26.7987
lfoot -6.39846 7.76105
ltoes 2.61973
133
root -7.80593 16.9748 -2.02238 -2.34515 26.6103 -11.3183
lowerback 7.17488 1.23772 6.02423
upperback 0.0336937 2.36459 4.37792
thorax -3.94352 1.11224 0.92165
lowerneck -14.9342 -3.12889 -8.80076
upperneck 20.8057 -3.16946 4.62426
head 9.23174 -1.65371 2.66915
rclavicle -6.63195e-014 -5.36719e-014
rhumerus -32.9274 -8.66374 -76.9729
rradius 36.9594
rwrist -1.30671
rhand -18.1598 13.3858
rfingers 7.12502
rthumb 8.11613 -16.4383
lclavicle -6.63195e-014 -5.36719e-014
lhumerus -45.6025 26.4165 71.584
lradius 23.9177
lwrist -9.09438
lhand -21.8636 18.6311
lfingers 7.12502
lthumb 4.54047 48.5624
rfemur 11.6004 5.46264 30.9405
rtibia 11.7759
rfoot -16.1926 -9.32792
rtoes -14.8346
lfemur -39.987 -2.59164 -13.2411
ltibia 24.2624
lfoot -6.9046 10.9302
ltoes 9.96657
134
root -7.69335 16.9595 -1.80841 -2.03767 25.9459 -11.13
lowerback 6.85629 1.55221 5.81088
upperback 0.0657258 2.72908 4.30536
thorax -3.72662 1.30082 0.937566
lowerneck -15.0191 -3.14884 -8.70164
upperneck 20.9049 -3.22113 4.64703
head 9.28389 -1.66739 2.65467
rclavicle -2.36057e-015 -8.15017e-015
rhumerus -32.5288 -8.68055 -76.9821
rradius 37.4405
rwrist -1.01087
rhand -18.0553 12.9575
rfingers 7.12502
rthumb 8.21695 -16.8627
lclavicle -2.36057e-015 -8.15017e-015
lhumerus -45.5289 25.8063 72.2347
lradius 24.0619
lwrist -6.56935
lhand -24.49 23.4992
lfingers 7.12502
lthumb 2.00413 53.4695
rfemur 12.8818 5.69291 30.7367
rtibia 10.4817
rfoot -15.7109 -8.89024
rtoes -14.7654
lfemur -39.773 -4.55242 -11.6093
ltibia 22.2274
lfoot -7.44272 13.9704
ltoes 13.3161
135
root -7.58223 16.9534 -1.59507 -1.72725 25.4189 -11.0625
lowerback 6.5873 1.77585 5.77026
upperback -0.00696786 3.00145 4.26142
thorax -3.64394 1.43695 0.896665
lowerneck -15.1358 -3.1389 -8.72316
upperneck 21.0986 -3.18713 4.61876
head 9.37066 -1.65675 2.65434
rclavicle -9.35282e-014 7.7526e-015
rhumerus -32.0626 -8.58507 -77.0034
rradius 37.469
rwrist -0.687456
rhand -18.3218 13.4472
rfingers 7.12502
rthumb 7.95973 -16.3829
lclavicle -9.35282e-014 7.7526e-015
lhumerus -46.4491 27.1667 70.6076
lradius 23.4188
lwrist -8.76067
lhand -23.7223 23.55
lfingers 7.12502
lthumb 2.74558 53.512
rfemur 13.9595 6.1508 30.7173
rtibia 9.50517
rfoot -15.1239 -8.78178
rtoes -14.5814
lfemur -39.6953 -5.96719 -10.1995
ltibia 20.6426
lfoot -8.59188 16.8794
ltoes 10.9889
136
root -7.4686 16.9421 -1.37755 -1.24886 24.9898 -10.8863
lowerback 6.18962 1.98085 5.63957
upperback -0.160034 3.23367 4.1505
thorax -3.57406 1.55289 0.845283
lowerneck -15.2551 -3.09745 -8.72578
upperneck 21.3845 -3.15998 4.77843
head 9.49268 -1.62794 2.71726
rclavicle 3.62285e-014 1.98785e-016
rhumerus -31.5725 -8.57042 -77.0733
rradius 37.2871
rwrist -0.556334
rhand -18.4882 14.1572
rfingers 7.12502
rthumb 7.79915 -15.6789
lclavicle 3.62285e-014 1.98785e-016
lhumerus -47.2684 27.809 69.437
lradius 22.9585
lwrist -9.64651
lhand -23.537 24.4333
lfingers 7.12502
lthumb 2.92451 54.393
rfemur 14.8671 6.53826 30.5603
rtibia 8.70024
rfoot -14.5522 -8.65324
rtoes -14.7106
lfemur -39.8239 -6.7286 -9.33191
ltibia 19.5763
lfoot -10.0102 18.8951
ltoes 9.65907
137
root -7.35568 16.9248 -1.15832 -0.815057 24.7336 -10.5141
lowerback 5.87299 2.15252 5.31341
upperback -0.268513 3.41155 4.00286
thorax -3.51316 1.64542 0.868336
lowerneck -15.1899 -3.06789 -8.77592
upperneck 21.3883 -3.17041 5.02396
head 9.48646 -1.6104 2.81106
rclavicle -6.57729e-014 -1.61016e-014
rhumerus -31.1429 -8.6704 -77.1092
rradius 37.2677
rwrist -0.551381
rhand -17.9658 13.66
rfingers 7.12502
rthumb 8.3033 -16.1568
lclavicle -6.57729e-014 -1.61016e-014
lhumerus -47.9989 28.697 68.172
lradius 22.3665
lwrist -10.7759
lhand -23.6076 25.6181
lfingers 7.12502
lthumb 2.85632 55.5787
rfemur 15.9151 6.72797 30.2494
rtibia 8.04921
rfoot -13.858 -8.6684
rtoes -15.9737
lfemur -39.9012 -6.60105 -9.37789
ltibia 19.0753
lfoot -10.7182 19.0883
ltoes 10.3182
138
root -7.23987 16.9046 -0.933949 -0.69432 24.5598 -10.3957
lowerback 5.66085 2.24407 5.23754
upperback -0.239975 3.50503 3.93048
thorax -3.36159 1.69567 0.83744
lowerneck -15.1058 -3.05066 -8.85766
upperneck 21.1608 -3.16697 5.18211
head 9.39447 -1.59725 2.87788
rclavicle -3.40916e-014 8.34896e-015
rhumerus -30.5737 -8.82455 -77.1573
rradius 37.1022
rwrist -0.610531
rhand -16.6599 12.5708
rfingers 7.12502
rthumb 9.56349 -17.1922
lclavicle -3.40916e-014 8.34896e-015
lhumerus -48.5572 29.3991 67.2278
lradius 21.9494
lwrist -11.536
lhand -23.2707 25.2646
lfingers 7.12502
lthumb 3.18172 55.2207
rfemur 16.9383 6.79599 30.1789
rtibia 7.88363
rfoot -13.3485 -8.53813
rtoes -18.0286
lfemur -39.7751 -5.32109 -10.0446
ltibia 19.0101
lfoot -10.4439 17.7488
ltoes 8.98031
139
root -7.12321 16.8905 -0.710745 -0.76349 24.4927 -10.5035
lowerback 5.62228 2.25811 5.3783
upperback -0.270356 3.53028 3.89414
thorax -3.36037 1.70495 0.721152
lowerneck -15.322 -3.0567 -8.92865
upperneck 21.4848 -3.1719 5.2992
head 9.55162 -1.59255 2.93403
rclavicle -1.16637e-013 -4.03533e-014
rhumerus -30.3179 -8.83768 -77.2695
rradius 37.1737
rwrist -0.773665
rhand -15.8548 12.2146
rfingers 7.12502
rthumb 10.3402 -17.5112
lclavicle -1.16637e-013 -4.03533e-014
lhumerus -49.2164 29.941 66.2422
lradius 21.5361
lwrist -12.1616
lhand -22.0604 22.8504
lfingers 7.12502
lthumb 4.3504 52.7857
rfemur 17.6079 6.7492 30.2848
rtibia 8.3771
rfoot -13.0957 -8.17302
rtoes -21.8251
lfemur -39.5149 -3.31421 -11.0428
ltibia 19.2762
lfoot -9.75315 15.2857
ltoes 5.72834
